<svg xmlns="http://www.w3.org/2000/svg" viewBox="0 0 224 224"><defs><filter id="shadow" x="-40%" y="-40%" width="180%" height="180%"><feDropShadow dx="0" dy="6" stdDeviation="5" flood-color="#00131f" flood-opacity="0.45"/><feDropShadow dx="0" dy="0" stdDeviation="7" flood-color="#8ecae6" flood-opacity="0.35"/></filter></defs><g filter="url(#shadow)" stroke-linecap="round" stroke-linejoin="round" stroke-width="7"><style>.fill{fill:#8ecae655;stroke:#8ecae6;}.shine{fill:#e0f7fa24;stroke:none;}.line{fill:none;stroke:#e0f7facc;}.hole{fill:#000a;stroke:#8ecae6;}</style><path class="fill" d="M70 14h38v27l17 25-8 130c-1 14-12 24-27 24H65c-15 0-26-10-27-24L30 66l17-25V14h23Z"/><path class="shine" d="M78 48h26l12 24-4 42c-20-2-39 3-58 16L51 72l27-24Z"/><path class="line" d="M47 145c24-9 47-9 69 0M49 91c26 12 48 12 74 0M47 14h64"/></g></svg>