<svg xmlns="http://www.w3.org/2000/svg" viewBox="0 0 224 224"><defs><filter id="shadow" x="-40%" y="-40%" width="180%" height="180%"><feDropShadow dx="0" dy="6" stdDeviation="5" flood-color="#00131f" flood-opacity="0.45"/><feDropShadow dx="0" dy="0" stdDeviation="7" flood-color="#adb5bd" flood-opacity="0.35"/></filter></defs><g filter="url(#shadow)" stroke-linecap="round" stroke-linejoin="round" stroke-width="7"><style>.fill{fill:#adb5bd55;stroke:#adb5bd;}.shine{fill:#e0f7fa24;stroke:none;}.line{fill:none;stroke:#e0f7facc;}.hole{fill:#000a;stroke:#adb5bd;}</style><path class="fill" d="M106 20h12l15 27 28 8 25-12 18 20-14 27 9 27 28 15v12l-28 15-9 27 14 27-18 20-25-12-28 8-15 27h-12l-15-27-28-8-25 12-18-20 14-27-9-27-28-15v-12l28-15 9-27-14-27 18-20 25 12 28-8 15-27Z"/><circle class="hole" cx="112" cy="126" r="31"/><path class="line" d="M112 67v24M112 163v24M55 126h24M145 126h24"/></g></svg>