<svg xmlns="http://www.w3.org/2000/svg" viewBox="0 0 224 224"><defs><filter id="shadow" x="-40%" y="-40%" width="180%" height="180%"><feDropShadow dx="0" dy="6" stdDeviation="5" flood-color="#00131f" flood-opacity="0.45"/><feDropShadow dx="0" dy="0" stdDeviation="7" flood-color="#5f0f40" flood-opacity="0.35"/></filter></defs><g filter="url(#shadow)" stroke-linecap="round" stroke-linejoin="round" stroke-width="7"><style>.fill{fill:#5f0f4055;stroke:#5f0f40;}.shine{fill:#e0f7fa24;stroke:none;}.line{fill:none;stroke:#e0f7facc;}.hole{fill:#000a;stroke:#5f0f40;}</style><path class="fill" d="M38 155c0-32 28-52 63-47 8-36 39-58 74-50 33 8 55 37 51 72-4 39-32 62-75 62H92c-34 0-54-12-54-37Z"/><path class="shine" d="M88 121c27-13 62-8 103 14-7 27-27 42-62 42H88c-27 0-44-8-44-23 0-16 20-27 44-33Z"/><path class="line" d="M66 152c28-13 61-8 102 7"/></g></svg>